<?xml version="1.0" encoding="UTF-8"?>
<svg version="1.1" xmlns="http://www.w3.org/2000/svg" width="1163" height="313">
<path d="M0 0 C383.79 0 767.58 0 1163 0 C1163 103.29 1163 206.58 1163 313 C779.21 313 395.42 313 0 313 C0 209.71 0 106.42 0 0 Z " fill="#FEFEFE" transform="translate(0,0)"/>
<path d="M0 0 C1.56552066 1.39847335 3.11360239 2.81360118 4.65551758 4.23803711 C5.16566406 4.70435547 5.67581055 5.17067383 6.20141602 5.65112305 C17.03545367 15.66075708 25.48891506 27.143835 32.90551758 39.86303711 C33.30085693 40.5259375 33.69619629 41.18883789 34.10351562 41.87182617 C35.64418369 44.62128274 36.66025695 46.70248844 36.63208008 49.88647461 C35.4144687 52.81848282 33.8479132 54.82484934 31.78051758 57.23803711 C30.9684082 58.19709961 30.15629883 59.15616211 29.31958008 60.14428711 C28.88548828 60.64831055 28.45139648 61.15233398 28.00415039 61.67163086 C26.17179366 63.7998714 24.36066178 65.94576242 22.54833984 68.09106445 C21.61305145 69.19701634 20.67601284 70.30149026 19.73730469 71.40454102 C16.88147907 74.76369412 14.09696748 78.16932239 11.34301758 81.61303711 C6.47077376 87.6089696 1.17451429 93.18244288 -4.12182617 98.80053711 C-6.47611928 101.30067139 -8.7855873 103.82729696 -11.03198242 106.42553711 C-18.91528513 115.5261145 -27.17852576 124.1911996 -35.65698242 132.73803711 C-36.51702881 133.61105469 -37.3770752 134.48407227 -38.26318359 135.38354492 C-42.39189769 139.51828986 -46.29464092 143.27238794 -51.34448242 146.23803711 C-49.38335348 138.19314295 -46.68313926 130.7102264 -43.40698242 123.11303711 C-42.92608154 121.98994141 -42.44518066 120.8668457 -41.94970703 119.7097168 C-32.73998263 98.41325183 -22.31721613 77.81646656 -10.74291992 57.71069336 C-10.35523438 57.02249512 -9.96754883 56.33429688 -9.56811523 55.62524414 C-8.55122352 53.82060032 -7.51507456 52.02684431 -6.47729492 50.23413086 C-5.06488664 47.32406792 -5.06488664 47.32406792 -5.94604492 44.51147461 C-8.09888023 41.01161386 -10.7097921 39.09340204 -14.34448242 37.23803711 C-18.13810785 36.55518453 -19.59368608 36.7164823 -22.76245117 38.91772461 C-32.0775471 47.28862776 -38.25566408 60.42154438 -44.34448242 71.23803711 C-44.73667969 71.93445313 -45.12887695 72.63086914 -45.53295898 73.34838867 C-54.58511527 89.57538588 -61.51792082 106.61314206 -67.34448242 124.23803711 C-67.68608398 125.2319043 -68.02768555 126.22577148 -68.37963867 127.24975586 C-71.00535661 135.61541533 -72.41713843 145.65489168 -68.65698242 153.86303711 C-66.10304774 158.0924254 -63.04966586 160.66964263 -58.34448242 162.23803711 C-53.69796682 162.87579415 -51.06448058 162.39149693 -47.34448242 159.67553711 C-40.61209516 154.11905626 -35.12955543 147.85152612 -29.66479492 141.06225586 C-27.46119836 138.38010045 -25.18404417 135.8017729 -22.84448242 133.23803711 C-19.00256303 129.01789767 -15.38333021 124.65776527 -11.79370117 120.22241211 C-9.0263744 116.85042224 -6.19297827 113.5414139 -3.34448242 110.23803711 C0.96771329 105.23353502 5.19092386 100.16871442 9.35864258 95.04272461 C12.03611322 91.77329617 14.74452225 88.5316568 17.46801758 85.30053711 C17.92442627 84.75647217 18.38083496 84.21240723 18.85107422 83.65185547 C21.33525568 80.71325615 23.88971095 77.91358432 26.65551758 75.23803711 C25.04893607 79.48168423 23.07724975 83.50693287 21.03051758 87.55053711 C20.50047119 88.60712524 20.50047119 88.60712524 19.9597168 89.68505859 C18.22370173 93.14361633 16.47476624 96.59484674 14.70239258 100.03491211 C-4.83554751 136.90981408 -4.83554751 136.90981408 -12.71948242 177.11303711 C-12.7272168 178.34795898 -12.73495117 179.58288086 -12.74291992 180.85522461 C-12.30794247 184.54826844 -11.79292659 186.43833935 -9.34448242 189.23803711 C-6.24877172 190.1301089 -6.24877172 190.1301089 -3.34448242 190.23803711 C-3.20655273 189.43108398 -3.06862305 188.62413086 -2.92651367 187.79272461 C0.27750428 172.47198904 7.20700164 158.41133777 13.65551758 144.23803711 C14.30907227 142.79799316 14.30907227 142.79799316 14.97583008 141.32885742 C20.00114801 130.32557436 25.4885165 119.5836367 31.2121582 108.92895508 C32.85243966 105.87090666 34.47998725 102.80619833 36.10864258 99.74194336 C37.29027985 97.53195793 38.47256437 95.32231843 39.65551758 93.11303711 C40.21980469 92.05060791 40.7840918 90.98817871 41.36547852 89.89355469 C41.89431641 88.91153076 42.4231543 87.92950684 42.96801758 86.91772461 C43.43852539 86.03842285 43.9090332 85.15912109 44.39379883 84.25317383 C45.65551758 82.23803711 45.65551758 82.23803711 47.65551758 81.23803711 C55.12443198 114.18128455 47.87991071 151.6619991 30.23754883 180.24584961 C9.36583493 212.84338286 -20.81440712 235.43067668 -58.34448242 245.23803711 C-97.24176766 253.43591117 -136.00423895 246.44507737 -169.25976562 224.80102539 C-175.71387174 220.44913491 -181.60035764 215.47938983 -187.34448242 210.23803711 C-188.76567383 208.9425293 -188.76567383 208.9425293 -190.21557617 207.62084961 C-201.52602483 196.80773983 -210.08608498 184.03921535 -217.34448242 170.23803711 C-217.81112305 169.35889648 -218.27776367 168.47975586 -218.75854492 167.57397461 C-220.34038272 164.35649501 -221.29561863 161.82440264 -221.59448242 158.23803711 C-220.01920462 154.45737038 -217.75620945 152.18821721 -214.96557617 149.21850586 C-211.63757996 145.4342121 -208.68780697 141.43218367 -205.71948242 137.36303711 C-205.12200195 136.54601318 -204.52452148 135.72898926 -203.90893555 134.88720703 C-201.43983496 131.50332169 -198.97931692 128.11324914 -196.51977539 124.72241211 C-189.54283197 115.11518934 -182.49026206 105.71223531 -174.67016602 96.77416992 C-173.34418648 95.23769419 -172.05416106 93.67696743 -170.77026367 92.10522461 C-161.10826189 80.38430878 -150.16690882 69.87267447 -139.34448242 59.23803711 C-139.01448242 59.89803711 -138.68448242 60.55803711 -138.34448242 61.23803711 C-139.29527259 63.62726596 -140.31003503 65.89372266 -141.43041992 68.20288086 C-141.92894722 69.25406853 -141.92894722 69.25406853 -142.43754578 70.32649231 C-143.52410358 72.61312699 -144.6216667 74.89428894 -145.71948242 77.17553711 C-146.46556981 78.7399697 -147.21093064 80.304749 -147.95556641 81.86987305 C-149.42066741 84.9467839 -150.88975868 88.02173317 -152.36254883 91.0949707 C-154.37220887 95.29082702 -156.35652996 99.49830898 -158.33544922 103.70874023 C-161.0980338 109.58513341 -163.93108536 115.40309393 -166.90698242 121.17553711 C-169.79383064 126.89527377 -172.27190471 132.72988297 -174.65698242 138.67553711 C-175.16370483 139.93708618 -175.16370483 139.93708618 -175.68066406 141.22412109 C-179.77283658 150.94828308 -179.77283658 150.94828308 -180.34448242 161.23803711 C-178.10124808 164.18628796 -176.58931088 165.91356543 -172.96166992 166.85913086 C-170.33035257 166.51240944 -170.33035257 166.51240944 -169.16650391 164.81323242 C-167.90985706 162.72230055 -166.77588899 160.59329063 -165.65698242 158.42553711 C-161.94486597 151.67509074 -158.13209488 146.31051366 -152.76635742 140.76147461 C-150.37096492 138.26563016 -148.19817806 135.68392292 -146.03198242 132.98803711 C-141.85543376 127.81355204 -137.51634448 122.79893824 -133.14428711 117.7902832 C-129.94931075 114.12007512 -126.82975361 110.40753989 -123.78198242 106.61303711 C-119.97589821 101.90606325 -115.92334127 97.48814672 -111.78564453 93.07568359 C-108.65307138 89.71590297 -105.70360796 86.27534191 -102.84448242 82.67553711 C-99.48015672 78.4961744 -95.93031114 74.60705715 -92.15698242 70.80053711 C-91.6697168 70.30416748 -91.18245117 69.80779785 -90.68041992 69.29638672 C-87.45630073 66.09902597 -84.16918626 63.63485152 -80.34448242 61.23803711 C-81.96760134 67.04307419 -84.80563734 72.00666444 -87.71948242 77.23803711 C-88.25404053 78.2093457 -88.78859863 79.1806543 -89.33935547 80.18139648 C-91.49754328 84.10226782 -93.66612291 88.01730004 -95.84008789 91.92944336 C-112.42331726 121.79614915 -128.34826897 152.36431659 -138.59448242 185.05053711 C-139.16948486 186.87500366 -139.16948486 186.87500366 -139.75610352 188.73632812 C-142.646759 197.97237142 -142.646759 197.97237142 -141.71557617 207.41772461 C-140.66173756 209.43729792 -140.66173756 209.43729792 -138.34448242 212.23803711 C-134.71300757 213.29454801 -134.71300757 213.29454801 -131.34448242 213.23803711 C-131.2697168 212.64120117 -131.19495117 212.04436523 -131.11791992 211.42944336 C-125.74181799 175.95771195 -101.51762336 141.37330999 -83.77026367 111.10522461 C-78.17708101 101.54933837 -72.6956285 91.93158539 -67.34448242 82.23803711 C-66.96146973 81.54500488 -66.57845703 80.85197266 -66.18383789 80.13793945 C-62.59159764 73.5575543 -59.70696633 66.92246023 -57.40698242 59.80053711 C-57.19493164 59.14964111 -56.98288086 58.49874512 -56.7644043 57.828125 C-55.06258733 52.18178091 -54.28487977 47.35724242 -56.96948242 41.98803711 C-59.67221764 38.85855423 -61.41345022 37.52318225 -65.34448242 36.23803711 C-73.18356211 35.70657408 -77.1566894 39.94034714 -82.8487854 44.89898682 C-87.26918452 48.8564305 -91.4285069 53.07944075 -95.59448242 57.30053711 C-96.54459694 58.25211485 -97.49511704 59.2032878 -98.44604492 60.15405273 C-103.61661146 65.35720688 -108.57308272 70.66899919 -113.34448242 76.23803711 C-114.79893759 77.84572083 -116.25669137 79.45043425 -117.71948242 81.05053711 C-121.6960433 85.45315808 -125.46033276 89.99848138 -129.19213867 94.60913086 C-132.15625105 98.22954398 -135.2318751 101.74511121 -138.34448242 105.23803711 C-138.67448242 104.57803711 -139.00448242 103.91803711 -139.34448242 103.23803711 C-138.26806641 100.61865234 -138.26806641 100.61865234 -136.59057617 97.29663086 C-135.97912227 96.06874716 -135.36796861 94.84071391 -134.75708008 93.61254883 C-134.43378723 92.9692865 -134.11049438 92.32602417 -133.77740479 91.66326904 C-121.6576447 70.01992979 -121.6576447 70.01992979 -119.34448242 46.23803711 C-121.54774584 42.32112437 -124.19212706 39.95314041 -128.34448242 38.23803711 C-132.92278677 37.27504261 -136.64876048 37.28875736 -140.79370117 39.60913086 C-143.47290094 41.68432424 -145.90307506 43.88678512 -148.34448242 46.23803711 C-148.83770996 46.70918945 -149.3309375 47.1803418 -149.83911133 47.66577148 C-155.27069899 52.8809137 -160.49973621 58.25298717 -165.37963867 63.99194336 C-167.5346945 66.45547636 -169.76318719 68.8382027 -172.00390625 71.22363281 C-178.07175241 77.68523703 -183.81339499 84.30654685 -189.34448242 91.23803711 C-191.02654365 93.30503788 -192.71701056 95.36498044 -194.40698242 97.42553711 C-195.16108398 98.3472168 -195.91518555 99.26889648 -196.69213867 100.21850586 C-197.23741211 100.88495117 -197.78268555 101.55139648 -198.34448242 102.23803711 C-199.67467396 98.24746248 -198.2604825 96.12785906 -196.59057617 92.50756836 C-196.29264664 91.83948654 -195.9947171 91.17140472 -195.6877594 90.483078 C-194.72826345 88.33467838 -193.75606378 86.19235848 -192.78198242 84.05053711 C-188.99005415 75.66144482 -185.23627217 67.26192008 -181.87963867 58.68725586 C-181.62218369 58.05624466 -181.3647287 57.42523346 -181.09947205 56.77510071 C-179.28682621 52.01955254 -178.92758077 48.24649523 -179.34448242 43.23803711 C-182.30029247 40.20444258 -184.98251435 38.54757531 -189.09448242 37.61303711 C-192.33730304 37.89075091 -192.33730304 37.89075091 -193.7722168 39.87451172 C-197.62681009 45.8723918 -200.95250839 52.02785954 -204.09448242 58.42553711 C-204.61034912 59.46637451 -205.12621582 60.50721191 -205.65771484 61.57958984 C-210.40157814 71.21818135 -214.84822101 80.98233839 -219.23803711 90.78588867 C-221.39447459 95.56507182 -223.63538916 100.30450521 -225.87182617 105.04663086 C-227.42820726 108.41947793 -228.89592958 111.81772279 -230.34448242 115.23803711 C-230.67448242 115.23803711 -231.00448242 115.23803711 -231.34448242 115.23803711 C-231.68921952 102.17633158 -231.26829632 89.98955627 -228.34448242 77.23803711 C-228.07764648 76.01084961 -227.81081055 74.78366211 -227.53588867 73.51928711 C-223.49225041 56.69775193 -216.20376484 41.39913802 -206.34448242 27.23803711 C-205.74531006 26.37637939 -205.74531006 26.37637939 -205.1340332 25.49731445 C-182.94666133 -5.87041202 -149.4885513 -24.93998867 -112.09448242 -32.13696289 C-72.3209963 -37.21884247 -30.44927592 -26.48634765 0 0 Z " fill="#FD6F01" transform="translate(233.344482421875,50.761962890625)"/>
<path d="M0 0 C8.91 0 17.82 0 27 0 C35.50058791 10.86960421 35.50058791 10.86960421 37.75390625 16.10546875 C40.8404001 22.85167627 44.52633854 29.01554017 48.45626831 35.28817749 C50.29035284 38.22992784 52.08233133 41.19695498 53.875 44.1640625 C54.22412949 44.74079208 54.57325897 45.31752167 54.93296814 45.91172791 C58.89064582 52.45720472 62.77413416 59.04608255 66.65136719 65.6394043 C70.67920254 72.48245599 74.79383215 79.26504846 79 86 C83.25465152 81.1628045 86.24670576 75.62337198 89.4375 70.0625 C90.68955639 67.89812053 91.94217325 65.7340652 93.1953125 63.5703125 C93.82856445 62.47493164 94.46181641 61.37955078 95.11425781 60.25097656 C97.98746782 55.29762797 100.89651145 50.36575449 103.8125 45.4375 C104.62436768 44.06501099 104.62436768 44.06501099 105.45263672 42.66479492 C107.75841297 38.77110508 110.0683942 34.87999509 112.390625 30.99609375 C112.93408569 30.0836792 112.93408569 30.0836792 113.48852539 29.15283203 C114.19840082 27.97772112 114.92141207 26.81043539 115.65795898 25.65185547 C118.38996208 21.3021633 120.3979735 16.8659731 122.26879883 12.08081055 C124.60291394 7.69463254 127.92912315 3.90593986 131 0 C139.91 0 148.82 0 158 0 C158 46.53 158 93.06 158 141 C148.1 141 138.2 141 128 141 C127.67 113.61 127.34 86.22 127 58 C122.05 66.58 117.1 75.16 112 84 C109.04111799 88.93225592 106.07690143 93.85272022 103.0625 98.75 C97.53901783 107.74342951 92.18958991 116.8113071 87 126 C81.66685804 126.79984843 76.26119308 127.52765945 71 126 C66.672893 122.2022004 64.40208603 117.50454309 61.875 112.4375 C61.13085101 111.06108829 60.38027713 109.68813208 59.62353516 108.31860352 C58.10133085 105.55123097 56.60852945 102.77104134 55.13671875 99.9765625 C52.12841532 94.31235302 48.75897529 88.88429682 45.375 83.4375 C44.31902862 81.7078144 43.26429782 79.97737069 42.2109375 78.24609375 C38.48442526 72.1576437 34.74119367 66.07943972 31 60 C30.67 86.73 30.34 113.46 30 141 C20.1 141 10.2 141 0 141 C0 94.47 0 47.94 0 0 Z " fill="#1E1E1E" transform="translate(384,91)"/>
<path d="M0 0 C6.76748584 5.69893544 11.21051062 12.87708266 12.9296875 21.625 C13.01860903 24.14224304 13.0560358 26.63077679 13.04321289 29.14746094 C13.04335892 29.89906998 13.04350494 30.65067902 13.0436554 31.42506409 C13.04296012 33.90319734 13.03518576 36.38125492 13.02734375 38.859375 C13.0254782 40.58001667 13.02405494 42.30065888 13.02305603 44.02130127 C13.01924163 48.54552685 13.00942052 53.06972023 12.99835205 57.59393311 C12.98811479 62.21235722 12.98355345 66.83078655 12.97851562 71.44921875 C12.9677973 80.50782663 12.95073379 89.56641064 12.9296875 98.625 C8.6396875 98.625 4.3496875 98.625 -0.0703125 98.625 C-0.5653125 91.2 -0.5653125 91.2 -1.0703125 83.625 C-1.9778125 84.82125 -2.8853125 86.0175 -3.8203125 87.25 C-10.08432251 94.40162276 -19.62356946 98.74820648 -29.0703125 99.625 C-42.56165704 100.26347927 -55.03170709 99.69719126 -66.1171875 91.0234375 C-71.32975879 86.1450054 -75.11630602 80.46396076 -75.6015625 73.1875 C-75.61201496 71.66666691 -75.60145005 70.14555023 -75.5703125 68.625 C-75.58578125 67.86960937 -75.60125 67.11421875 -75.6171875 66.3359375 C-75.57138714 59.67198584 -73.51782732 54.66770592 -69.3515625 49.48828125 C-61.55885445 42.70384025 -51.7828127 38.48214789 -41.37182617 38.51147461 C-40.0209919 38.51158791 -40.0209919 38.51158791 -38.64286804 38.51170349 C-37.20509758 38.51944542 -37.20509758 38.51944542 -35.73828125 38.52734375 C-34.25066032 38.52946617 -34.25066032 38.52946617 -32.73298645 38.53163147 C-29.57456407 38.53721582 -26.41621335 38.54976548 -23.2578125 38.5625 C-21.11263123 38.56751702 -18.96744885 38.57207958 -16.82226562 38.57617188 C-11.57159026 38.58718012 -6.3209565 38.6039027 -1.0703125 38.625 C-1.19007703 36.39662528 -1.32118829 34.16885863 -1.45703125 31.94140625 C-1.52881592 30.70076416 -1.60060059 29.46012207 -1.67456055 28.18188477 C-2.41879312 21.49297398 -5.21474319 15.34569238 -10.0703125 10.625 C-20.68300482 4.15652018 -33.69973499 4.04989133 -45.703125 6.30859375 C-51.62779054 8.17262037 -56.81137916 10.98250629 -62.01171875 14.35546875 C-64.0703125 15.625 -64.0703125 15.625 -67.0703125 16.625 C-67.96465407 15.22046357 -68.83524442 13.80078131 -69.6953125 12.375 C-70.18257812 11.58609375 -70.66984375 10.7971875 -71.171875 9.984375 C-72.0703125 7.625 -72.0703125 7.625 -71.48046875 5.51171875 C-65.41887802 -2.59838741 -51.59603127 -5.97978543 -42.18359375 -7.9921875 C-27.35926265 -9.81500362 -12.4423736 -9.11529202 0 0 Z " fill="#575757" transform="translate(995.0703125,133.375)"/>
<path d="M0 0 C4.31712124 3.60834014 8.40913903 7.73500131 11.6875 12.3125 C11.6875 13.3025 11.6875 14.2925 11.6875 15.3125 C12.3475 15.3125 13.0075 15.3125 13.6875 15.3125 C13.9659375 14.2915625 13.9659375 14.2915625 14.25 13.25 C18.30751454 4.95855724 26.94609529 -0.57051146 35.41015625 -3.69140625 C37.82517653 -4.42764955 40.23502983 -5.08944149 42.6875 -5.6875 C43.29851562 -5.87183594 43.90953125 -6.05617188 44.5390625 -6.24609375 C57.07072694 -8.82078117 70.78318695 -6.37253161 81.4375 0.59375 C90.86032125 7.79173846 95.24173231 17.5271428 97.26560974 28.98982239 C98.07839493 35.39106795 97.93023549 41.82161969 97.8828125 48.26171875 C97.87907333 49.77057201 97.87623064 51.27942773 97.87423706 52.7882843 C97.86667162 56.72226902 97.84708582 60.65610149 97.8248291 64.59002686 C97.80421617 68.61924176 97.79520262 72.64848173 97.78515625 76.67773438 C97.76383175 84.55606658 97.72870923 92.43424669 97.6875 100.3125 C92.7375 100.3125 87.7875 100.3125 82.6875 100.3125 C82.6781543 98.21406738 82.66880859 96.11563477 82.65917969 93.95361328 C82.62527871 86.98852337 82.5696577 80.02372565 82.50359726 73.05887032 C82.46423621 68.83968773 82.43199244 64.6207103 82.41650391 60.40136719 C82.40126174 56.32270409 82.36668432 52.24460542 82.31919098 48.16619492 C82.30445455 46.6170838 82.29646347 45.06789206 82.29561615 43.51871109 C82.283401 32.37484087 81.41337389 22.33920185 73.4609375 13.78125 C65.36654445 7.0775236 54.72688987 6.51991659 44.6875 7.3125 C35.55299852 9.19454296 28.3409092 13.92617787 23.08984375 21.66796875 C17.50370341 31.91194039 17.37840026 43.10193758 17.2734375 54.51171875 C17.25407135 55.82791702 17.2347052 57.1441153 17.2147522 58.50019836 C17.16393953 61.960574 17.12404566 65.42098803 17.08660889 68.88153076 C17.04624576 72.42827448 16.99530277 75.9748656 16.9453125 79.52148438 C16.84915761 86.45171673 16.765545 93.38204024 16.6875 100.3125 C12.0675 100.3125 7.4475 100.3125 2.6875 100.3125 C2.6781543 98.24959717 2.66880859 96.18669434 2.65917969 94.0612793 C2.6252524 87.20795283 2.56961724 80.3549225 2.50359726 73.50183392 C2.46426514 69.35106119 2.43200741 65.20049609 2.41650391 61.04956055 C2.40124238 57.03572798 2.36663171 53.02246674 2.31919098 49.00889015 C2.30447421 47.485726 2.29646462 45.96248023 2.29561615 44.43924522 C2.28341887 33.51113407 1.65002126 22.12564545 -6.37890625 13.81640625 C-13.88622106 7.97738362 -22.2272223 6.4890429 -31.5546875 6.82421875 C-40.38666255 7.97182466 -47.87955591 11.10742586 -54.3125 17.3125 C-55.76541289 19.69222412 -56.97420162 21.8687578 -58.125 24.375 C-58.42341797 24.98666016 -58.72183594 25.59832031 -59.02929688 26.22851562 C-61.62327947 31.64484498 -62.43655366 35.74274135 -62.51782227 41.73339844 C-62.53776749 43.03444519 -62.55771271 44.33549194 -62.57826233 45.67596436 C-62.59524418 47.0912667 -62.61212307 48.50657028 -62.62890625 49.921875 C-62.64948755 51.37347999 -62.67048433 52.82507914 -62.69187927 54.27667236 C-62.74697851 58.09062972 -62.79644115 61.90464007 -62.84472656 65.71868896 C-62.89503049 69.61328834 -62.95067007 73.50781109 -63.00585938 77.40234375 C-63.1132923 85.03899933 -63.21427673 92.6757194 -63.3125 100.3125 C-67.9325 100.3125 -72.5525 100.3125 -77.3125 100.3125 C-77.3125 65.3325 -77.3125 30.3525 -77.3125 -5.6875 C-72.6925 -5.6875 -68.0725 -5.6875 -63.3125 -5.6875 C-62.9825 -0.4075 -62.6525 4.8725 -62.3125 10.3125 C-60.45625 8.270625 -60.45625 8.270625 -58.5625 6.1875 C-43.81061001 -8.56438999 -17.57947243 -12.25442835 0 0 Z " fill="#575757" transform="translate(792.3125,131.6875)"/>
<path d="M0 0 C4.95 0 9.9 0 15 0 C15.01458252 2.03784668 15.02916504 4.07569336 15.04418945 6.17529297 C15.09473554 12.94078666 15.16136471 19.70605501 15.23571491 26.47132683 C15.28026647 30.56940585 15.31955514 34.66738895 15.34643555 38.765625 C15.37262161 42.72750787 15.4131294 46.68901849 15.46318626 50.6506691 C15.47975231 52.15512555 15.49133002 53.65964623 15.49761391 55.16418076 C15.54751059 66.02180914 15.88960434 76.21657006 23 85 C25.16867199 87.23559978 25.16867199 87.23559978 28 89 C28.8353125 89.56074219 28.8353125 89.56074219 29.6875 90.1328125 C38.1331032 94.85047366 49.38685042 94.39556854 58.55078125 92.1171875 C67.26216067 88.77432017 74.24872792 83.77845909 78.2109375 75.1875 C80.1623076 69.7777611 81.25251708 64.90643371 81.31884766 59.14672852 C81.32889328 58.50197067 81.3389389 57.85721283 81.34928894 57.19291687 C81.37987148 55.08825472 81.39708546 52.98371823 81.4140625 50.87890625 C81.43279431 49.40916379 81.4523692 47.93943185 81.4727478 46.4697113 C81.52386263 42.6212894 81.56359812 38.77283272 81.60089111 34.92425537 C81.64106101 30.98913107 81.6920938 27.05414889 81.7421875 23.11914062 C81.83870202 15.41285098 81.92217888 7.70650524 82 0 C86.95 0 91.9 0 97 0 C97 34.98 97 69.96 97 106 C92.38 106 87.76 106 83 106 C82.67 100.39 82.34 94.78 82 89 C80.845 90.381875 79.69 91.76375 78.5 93.1875 C70.00225117 102.71754579 60.07364698 106.38363868 47.4921875 107.23828125 C33.53544873 107.52465062 21.84086911 104.31127842 11.375 94.9375 C0.35898967 83.36690791 -0.3019414 68.8386972 -0.1953125 53.80859375 C-0.19157579 52.25204145 -0.18873193 50.69548678 -0.18673706 49.13893127 C-0.17915235 45.07011255 -0.1595491 41.00143982 -0.1373291 36.93267822 C-0.11675858 32.76959202 -0.10771153 28.6064819 -0.09765625 24.44335938 C-0.07629757 16.29549892 -0.04115842 8.14778452 0 0 Z " fill="#595959" transform="translate(578,126)"/>
<path d="M0 0 C0 4.62 0 9.24 0 14 C-1.8975 14.061875 -3.795 14.12375 -5.75 14.1875 C-15.3413072 14.95020743 -24.06575969 17.77798715 -30.60546875 25.11328125 C-35.80131725 32.14295864 -38.21672575 40.03005129 -38.31884766 48.76147461 C-38.33871735 50.06229477 -38.35858704 51.36311493 -38.37905884 52.70335388 C-38.39093169 54.10301545 -38.40259475 55.50267881 -38.4140625 56.90234375 C-38.43279492 58.34966612 -38.45236985 59.79697781 -38.4727478 61.24427795 C-38.52385626 65.03351515 -38.5635951 68.82278766 -38.60089111 72.61218262 C-38.64106506 76.48698512 -38.69209598 80.36164339 -38.7421875 84.23632812 C-38.83869445 91.82412682 -38.92217418 99.41198249 -39 107 C-43.95 107 -48.9 107 -54 107 C-54 72.02 -54 37.04 -54 1 C-49.38 1 -44.76 1 -40 1 C-39.67 6.94 -39.34 12.88 -39 19 C-38.175 17.80375 -37.35 16.6075 -36.5 15.375 C-27.48830452 3.39474601 -14.46136121 -0.40170448 0 0 Z " fill="#595959" transform="translate(1155,125)"/>
<path d="M0 0 C0.96813629 0.0028299 1.93627258 0.00565979 2.93374634 0.00857544 C6.01064678 0.01972554 9.08725078 0.0448207 12.1640625 0.0703125 C14.2565062 0.08034898 16.34895448 0.08947366 18.44140625 0.09765625 C23.55740501 0.11964797 28.67318358 0.15414225 33.7890625 0.1953125 C33.85513757 3.07720215 33.90334756 5.95755997 33.94140625 8.83984375 C33.97204163 10.05613464 33.97204163 10.05613464 34.0032959 11.29699707 C34.0724632 18.28644172 32.61683532 22.96772412 27.7890625 28.1953125 C20.03538892 36.07133201 10.66244809 39.32440172 -0.2734375 39.6953125 C-8.1899156 39.44135468 -15.00057001 37.80373608 -21.2109375 32.7578125 C-26.52388098 25.95060367 -27.1699702 20.7511773 -26.2109375 12.1953125 C-23.57862752 6.42447908 -19.40340252 3.56507933 -13.65380859 1.09814453 C-9.04781285 -0.10969636 -4.74024784 -0.05253105 0 0 Z " fill="#FDFDFD" transform="translate(960.2109375,182.8046875)"/>
<path d="M0 0 C4.62 0 9.24 0 14 0 C14 34.98 14 69.96 14 106 C9.38 106 4.76 106 0 106 C0 71.02 0 36.04 0 0 Z " fill="#555555" transform="translate(1047,126)"/>
<path d="M0 0 C3 2.4375 3 2.4375 5 5 C5.33 5.33 5.66 5.66 6 6 C6.17996401 9.78706871 6.01243237 13.51032678 3.83984375 16.70703125 C1.21102474 19.1395651 -1.00603178 20.0010771 -4.5 20.625 C-9.11588456 19.8007349 -10.70966114 18.29033886 -14 15 C-15.55024464 11.89951072 -15.28992015 9.42105782 -15 6 C-11.03979224 -0.07231857 -7.00120938 -1.12454658 0 0 Z " fill="#585858" transform="translate(1059,83)"/>
<path d="M0 0 C0.33 0.66 0.66 1.32 1 2 C-2.14754098 8.64480874 -2.14754098 8.64480874 -5.25 9.9375 C-5.8275 9.958125 -6.405 9.97875 -7 10 C-5.33248852 6.05860922 -2.77289351 3.2107188 0 0 Z " fill="#FD892F" transform="translate(259,126)"/>
</svg>
